<svg xmlns="http://www.w3.org/2000/svg" width="51.1" height="94.341" viewBox="0 0 51.1 94.341">

    <g id="beyond-ales" transform="translate(0 58.014)">
        <path style="fill:#b6bdc7;"
              d="M134.558,86.353c-1.639,6.215-2.471,12.1-2.192,15.5.286,3.471,1.683,3.847,3.666.984a43.137,43.137,0,0,0,4.522-10.109A28.74,28.74,0,0,1,134.558,86.353Zm35.834,9.609a28.705,28.705,0,0,1-8.381,2.521,43.14,43.14,0,0,0-1.137,11.018c.286,3.469,1.684,3.843,3.666.981C166.485,107.674,168.7,102.165,170.392,95.962Zm-23.269.565c-2.3,8.985-3.763,17.18-3.931,21.955-.184,5.224,1.214,5.6,3.666.981,2.241-4.223,5.065-12.054,7.566-20.98a25.534,25.534,0,0,1-7.3-1.956Z"
              transform="translate(-132.313 -86.353)"/>
    </g>
    <g id="beyond-circle">
        <path style="fill:#d9684a;"
              d="M128.259,81.117q-.921-.031-1.833.006a24.566,24.566,0,1,0,1.833-.006Zm-.2,5.473a19.516,19.516,0,0,1,4.345.658,19.238,19.238,0,1,1-5.774-.655c.475-.019.95-.021,1.429,0Zm9.44-22.429a11.85,11.85,0,0,0-4.7,1.2,17.688,17.688,0,0,0-5.318,3.917,45.527,45.527,0,0,0-6.429,8.65,28.413,28.413,0,0,1,8.056-.687,32.179,32.179,0,0,1,3.335-4.186c3.645-3.672,6.623-3.975,8.134,2.181a32.7,32.7,0,0,1,.827,5.642,28.5,28.5,0,0,1,6.6,5.1,46.806,46.806,0,0,0-1.246-11.534A17.7,17.7,0,0,0,144.1,68.4c-1.208-1.671-2.838-3.456-4.981-4.03a6.208,6.208,0,0,0-1.63-.206Zm-9.218,16.448q-.94-.032-1.87.007a25.07,25.07,0,1,0,1.87-.006Zm-.209,5.586a19.913,19.913,0,0,1,4.434.672,19.632,19.632,0,1,1-5.892-.669c.484-.019.969-.021,1.458,0Z"
              transform="translate(-101.592 -64.162)"/>
    </g>

</svg>
